<?xml version="1.0" encoding="UTF-8"?>
<svg viewBox="0 0 1024 1024" fill="none" xmlns="http://www.w3.org/2000/svg">
  <title>Aether App Icon</title>

  <!-- Background with gradient -->
  <rect width="1024" height="1024" rx="226.5" fill="url(#bgGradient)"/>

  <defs>
    <linearGradient id="bgGradient" x1="0" y1="0" x2="1024" y2="1024" gradientUnits="userSpaceOnUse">
      <stop stop-color="#1C1C1E"/>
      <stop offset="1" stop-color="#0A0A0C"/>
    </linearGradient>
    <linearGradient id="mainGradient" x1="200" y1="200" x2="824" y2="824" gradientUnits="userSpaceOnUse">
      <stop stop-color="#0A84FF"/>
      <stop offset="1" stop-color="#5E5CE6"/>
    </linearGradient>
    <linearGradient id="satGradient" x1="300" y1="200" x2="450" y2="350" gradientUnits="userSpaceOnUse">
      <stop stop-color="#80E0FF"/>
      <stop offset="1" stop-color="#0A84FF"/>
    </linearGradient>
  </defs>

  <!-- Centered logo (scaled to fit icon) -->
  <g transform="translate(262, 262) scale(5)">
    <!-- Main Star -->
    <path d="M55 15 C59 40 70 51 95 55 C70 59 59 70 55 95 C51 70 40 59 15 55 C40 51 51 40 55 15Z"
          fill="url(#mainGradient)" />

    <!-- Satellite Star (1.5x larger) -->
    <path d="M35 10 C36.2 17.5 38 20.5 47 22 C38 23.5 36.2 26.5 35 34 C33.8 26.5 32 23.5 23 22 C32 20.5 33.8 17.5 35 10Z"
          fill="url(#satGradient)" />
  </g>
</svg>
