<?xml version="1.0" encoding="UTF-8"?>
<svg width="100" height="100" viewBox="0 0 100 100" fill="none" xmlns="http://www.w3.org/2000/svg">
  <defs>
    <linearGradient id="mainGradient" x1="10" y1="10" x2="90" y2="90" gradientUnits="userSpaceOnUse">
      <stop stop-color="#0A84FF"/>
      <stop offset="1" stop-color="#5E5CE6"/>
    </linearGradient>
    <linearGradient id="satGradient" x1="30" y1="15" x2="45" y2="30" gradientUnits="userSpaceOnUse">
      <stop stop-color="#80E0FF"/>
      <stop offset="1" stop-color="#0A84FF"/>
    </linearGradient>
  </defs>

  <!-- Main Star (Core) - Centered at (55, 55) -->
  <path d="M55 15 C59 40 70 51 95 55 C70 59 59 70 55 95 C51 70 40 59 15 55 C40 51 51 40 55 15Z"
        fill="url(#mainGradient)" />

  <!-- Satellite Star (Spark) - Enlarged 1.8x, centered at (35, 22) -->
  <path d="M35 7.6 C36.44 16.6 38.6 20.2 49.4 22 C38.6 23.8 36.44 27.4 35 36.4 C33.56 27.4 31.4 23.8 20.6 22 C31.4 20.2 33.56 16.6 35 7.6Z"
        fill="url(#satGradient)" />
</svg>